<?xml version="1.0" encoding="UTF-8"?>
<svg width="88px" height="82px" viewBox="0 0 88 82" version="1.1" xmlns="http://www.w3.org/2000/svg" xmlns:xlink="http://www.w3.org/1999/xlink">
    <!-- Generator: Sketch 52.4 (67378) - http://www.bohemiancoding.com/sketch -->
    <title>Fill 1</title>
    <desc>Created with Sketch.</desc>
    <g id="Homepage-Updates" stroke="none" stroke-width="1" fill="none" fill-rule="evenodd">
        <g id="Home-Page" transform="translate(-504.000000, -6662.000000)" fill="#059B9A">
            <path d="M567.189885,6702.38232 C570.369621,6696.13348 572.664222,6687.63086 573.729756,6676.64286 L585.256297,6676.64286 C585.474097,6676.64286 585.683097,6676.73438 585.832208,6676.89447 C585.981075,6677.05481 586.05832,6677.26933 586.041208,6677.48653 C584.686252,6695.6959 573.563534,6700.88948 567.189885,6702.38232 Z M557.066457,6697.51479 C556.951812,6697.60337 556.814434,6697.64901 556.673879,6697.64901 C556.57659,6697.64901 556.476368,6697.62632 556.387634,6697.58043 L548.000007,6693.33913 L539.612624,6697.58043 C539.523646,6697.62632 539.423423,6697.64901 539.326135,6697.64901 C539.185579,6697.64901 539.048201,6697.60337 538.933556,6697.51479 C538.741667,6697.3603 538.650001,6697.10869 538.707201,6696.8683 L540.855869,6687.63086 L534.058109,6681.62485 C533.871842,6681.45621 533.797531,6681.19581 533.877709,6680.95567 C533.949331,6680.71821 534.161265,6680.54396 534.410354,6680.51516 L543.399559,6679.51993 L547.427029,6671.06881 C547.530184,6670.84868 547.753607,6670.70567 548.000007,6670.70567 C548.246407,6670.70567 548.469829,6670.84868 548.572985,6671.06881 L552.600454,6679.51993 L561.58966,6680.51516 C561.838749,6680.54396 562.050927,6680.71821 562.122549,6680.95567 C562.202727,6681.19581 562.128171,6681.45621 561.941904,6681.62485 L555.144389,6687.63086 L557.292813,6696.8683 C557.350013,6697.10869 557.258346,6697.3603 557.066457,6697.51479 Z M553.866677,6737.16764 C553.866677,6737.70528 553.428388,6738.14286 552.889876,6738.14286 L543.110137,6738.14286 C542.571625,6738.14286 542.133336,6737.70528 542.133336,6737.16764 L542.133336,6733.26093 C542.133336,6732.72329 542.571625,6732.28571 543.110137,6732.28571 L552.889876,6732.28571 C553.428388,6732.28571 553.866677,6732.72329 553.866677,6733.26093 L553.866677,6737.16764 Z M509.958805,6677.48653 C509.941694,6677.26933 510.018938,6677.05481 510.168049,6676.89447 C510.316916,6676.73438 510.525916,6676.64286 510.743716,6676.64286 L522.270257,6676.64286 C523.336036,6687.63086 525.630393,6696.13348 528.810128,6702.38232 C522.436479,6700.88948 511.313761,6695.6959 509.958805,6677.48653 Z M590.724767,6672.0899 C589.899766,6671.25477 588.79121,6670.78571 587.613965,6670.78571 L574.156557,6670.78571 C574.208134,6669.81904 574.262645,6668.85823 574.296868,6667.85714 L574.400023,6667.85714 C576.021424,6667.85714 577.333359,6666.54734 577.333359,6664.92857 C577.333359,6663.3098 576.021424,6662 574.400023,6662 L521.59999,6662 C519.978589,6662 518.666655,6663.3098 518.666655,6664.92857 C518.666655,6666.54734 519.978589,6667.85714 521.59999,6667.85714 L521.703146,6667.85714 C521.737612,6668.85823 521.791879,6669.81904 521.843457,6670.78571 L508.386537,6670.78571 C507.209292,6670.78571 506.086314,6671.25477 505.261313,6672.0899 C504.436312,6672.92504 503.983357,6674.05742 504.000468,6675.23007 C504.011957,6675.94513 504.023934,6676.54573 504.041046,6676.82882 C504.568068,6686.82721 507.695248,6694.7407 513.355851,6700.37185 C521.376568,6708.35392 531.62613,6708.82859 533.069819,6708.85446 C534.845954,6710.92789 536.770955,6712.56374 538.827712,6713.73614 C540.867113,6714.89732 542.133336,6717.07105 542.133336,6719.41318 L542.133336,6721.74408 C542.133336,6725.05019 537.160355,6726.64016 532.903597,6727.58975 C531.442796,6727.9158 530.399996,6729.21145 530.399996,6730.70429 L530.399996,6732.28571 L527.46666,6732.28571 C525.845259,6732.28571 524.533325,6733.59552 524.533325,6735.21429 L524.533325,6741.07143 C524.533325,6742.6902 525.845259,6744 527.46666,6744 L568.533353,6744 C570.154754,6744 571.466688,6742.6902 571.466688,6741.07143 L571.466688,6735.21429 C571.466688,6733.59552 570.154754,6732.28571 568.533353,6732.28571 L565.600018,6732.28571 L565.600018,6730.70429 C565.600018,6729.21145 564.557217,6727.9158 563.096416,6727.58975 C558.839658,6726.64016 553.866677,6725.05019 553.866677,6721.74408 L553.866677,6719.41318 C553.866677,6717.0652 555.129967,6714.89732 557.172546,6713.73614 C559.229303,6712.56374 561.154304,6710.92789 562.930194,6708.85446 C564.373884,6708.82859 574.623446,6708.35392 582.644406,6700.37185 C588.304765,6694.7407 591.432434,6686.82721 591.959457,6676.82882 C591.976568,6676.54573 591.988057,6675.94513 591.999546,6675.23007 C592.016657,6674.05742 591.549768,6672.92504 590.724767,6672.0899 Z" id="Fill-1"></path>
        </g>
    </g>
</svg>