<?xml version="1.0" encoding="UTF-8"?>
<svg width="99px" height="82px" viewBox="0 0 99 82" version="1.1" xmlns="http://www.w3.org/2000/svg" xmlns:xlink="http://www.w3.org/1999/xlink">
    <!-- Generator: Sketch 52.4 (67378) - http://www.bohemiancoding.com/sketch -->
    <title>Group</title>
    <desc>Created with Sketch.</desc>
    <g id="Homepage-Updates" stroke="none" stroke-width="1" fill="none" fill-rule="evenodd">
        <g id="Home-Page" transform="translate(-1042.000000, -6661.000000)" fill="#059B9A">
            <g id="Group" transform="translate(1042.000000, 6661.000000)">
                <path d="M79.8060933,23.0731241 C79.2988189,23.2183698 78.7889287,23.3564331 78.2780323,23.4905061 C76.1525506,24.0663017 74.013386,24.5948127 71.8889104,25.1628273 L62.927197,27.5587835 C60.9655079,28.0831046 59.0040201,28.6076253 57.0423311,29.132146 L51.6277152,30.5796156 C49.9304287,31.033309 48.220264,31.614691 46.4988311,31.950871 C46.4901787,31.9524672 46.481325,31.9522676 46.4726726,31.9536642 C46.3171299,31.9809976 46.161386,31.986983 46.0124835,31.9390998 C45.8700201,31.8936107 45.726953,31.8181946 45.5852945,31.7274161 C45.1259104,31.4696448 44.6751787,31.0638345 44.3141909,30.8134453 C44.2725384,30.7853139 44.230886,30.7571825 44.1890323,30.7292506 C43.880764,30.5233528 43.5712884,30.3202482 43.260203,30.1195377 C43.1968189,30.0786375 43.1330323,30.0381363 43.069447,29.9974355 C42.7760689,29.8094939 42.481886,29.6233479 42.1862945,29.4395961 C42.1490689,29.4164526 42.1120445,29.39291 42.0748189,29.3699659 C41.7222823,29.1514988 41.3679348,28.9366229 41.0123799,28.7239416 C40.9425567,28.6820438 40.8729348,28.6403455 40.8029104,28.5988467 C40.4403128,28.3831727 40.0765079,28.1696934 39.7108921,27.9596058 C39.6847335,27.9446423 39.658575,27.9298783 39.6324165,27.9149148 C38.837197,27.4588273 38.0361421,27.0155085 37.2296543,26.5841606 C36.9105201,26.4133771 36.589575,26.246983 36.2686299,26.0799903 C37.5556299,28.1250024 38.424697,30.4579124 38.9810689,32.8558637 C39.6497213,35.8485645 39.877703,39.0687105 39.1869165,42.0831582 C38.7542945,43.9707543 37.8246604,46.0472895 36.1243555,46.9313333 C35.2945262,47.3626813 34.322636,47.5254842 33.4360628,47.7625061 C32.8873372,47.9091484 32.3384104,48.0559903 31.7896848,48.2026326 C32.8408555,49.1247835 34.1614591,49.8701655 35.5347823,49.7388856 C35.8150811,49.7123504 36.0949774,49.6267591 36.3698433,49.5533382 C37.3721177,49.2853917 38.3743921,49.0174453 39.3766665,48.7492993 C43.4213799,47.6679367 47.4660933,46.5867737 51.5110079,45.5054112 C56.1807091,44.257056 60.8504104,43.0085012 65.5201116,41.760146 C68.2408006,41.0327202 70.9614896,40.3052944 73.6821787,39.5780681 C75.9623982,38.9683552 77.4572579,37.0761703 78.3949409,34.8094988 C78.4828738,34.5978151 78.5651726,34.3835377 78.644453,34.1678637 C78.6496848,34.1487105 78.6531055,34.1297567 78.6597457,34.1106034 C79.8431177,30.7031144 80.070697,26.9867786 79.8298372,23.3809732 C79.8229957,23.2784234 79.8137396,23.1758735 79.8060933,23.0731241" id="Fill-1"></path>
                <path d="M95.8983421,20.0456282 C92.6746043,17.164655 88.4699213,17.6013898 84.5457384,18.5203484 C83.8710494,16.3350783 82.8736043,14.2246258 81.3906165,12.5834287 C80.7525494,11.8771513 79.9842933,11.2343192 79.1417872,10.962183 C78.8389518,10.8644214 78.5791774,10.8324993 78.3206104,10.843672 C78.8880494,12.320071 79.3639335,13.8311854 79.7591287,15.3359153 C79.7764335,15.4013557 79.7949457,15.4661976 79.8118482,15.531638 C81.0410982,20.2734725 81.634897,25.5946939 80.839275,30.5619786 C80.7229701,31.3556428 80.5704457,32.1431221 80.3760677,32.9144409 C80.6237689,32.8482024 80.8712689,32.781964 81.1187689,32.7157255 C81.5346896,32.6045966 81.9506104,32.4934676 82.3665311,32.3823387 C82.4637201,32.3562024 82.561714,32.3316623 82.6587018,32.3041294 C82.734964,32.282582 82.9732079,32.2019786 82.9474518,32.2167426 C83.815714,31.8362706 84.3895921,30.9943241 84.7938421,30.0193022 C85.8794213,27.4020856 85.7683482,24.2511708 85.2574518,21.4384311 C88.1173848,20.7076136 91.3260311,20.2070345 93.6307994,22.1070005 C94.966897,23.2083144 95.918464,25.0025382 95.949653,26.7391027 C95.9790311,28.3818959 95.2490067,29.8740564 94.3181652,31.193638 C92.0643055,34.3890443 88.5407506,36.7177645 85.2707323,38.7769421 C81.7208177,41.01229 77.9262201,42.9104603 74.8449457,45.7996136 C70.9736835,49.4301586 69.1083787,54.1977304 70.2301774,59.438947 C70.6392567,61.3504847 73.5933604,60.5414579 73.1846835,58.6313168 C71.0793238,48.7955066 82.220647,44.5546501 88.8003238,40.1092925 C92.2546591,37.7753849 95.9969396,34.9786063 97.9016835,31.1756818 C99.7832872,27.4184457 99.113025,22.9182219 95.8983421,20.0456282" id="Fill-3"></path>
                <path d="M12.5467006,15.333601 C13.2167616,15.4618881 13.8846091,15.6027445 14.550847,15.7529781 C14.6108104,15.7663455 14.6705726,15.7805109 14.730536,15.7942774 C14.9983591,15.8553285 15.2659811,15.9181752 15.5332006,15.982618 C15.702225,16.0233187 15.8710482,16.064618 16.0398713,16.1065158 C16.1308226,16.1290608 16.2215726,16.1524039 16.3123226,16.1755474 C20.5530238,17.2465353 24.7150482,18.7155523 28.7724384,20.4064282 C33.8828104,22.5158832 38.9018287,24.9996253 43.6198226,28.0044964 C43.7049384,28.0585645 43.7896518,28.1132311 43.8743652,28.1676983 C44.1238774,28.3279075 44.3729872,28.4887153 44.6206884,28.6519173 C44.8003774,28.7700292 44.9786579,28.8901363 45.1573409,29.0100438 C45.329786,29.1257616 45.503036,29.2404818 45.6746762,29.3577956 C45.9316335,29.5331679 46.1865787,29.7117324 46.4415238,29.8906959 C47.7321457,29.5455377 49.0229689,29.2003796 50.3135909,28.8554209 C56.4596396,27.2122287 62.6056884,25.5690365 68.7517372,23.9260438 C72.3642311,22.960399 75.976725,21.9945547 79.5890177,21.0287105 C79.4191884,19.776365 79.1954323,18.5343942 78.9185543,17.3033966 C78.6289994,16.0472603 78.2915543,14.8012993 77.8903226,13.5804769 C77.5564994,12.5817129 77.1842433,11.5999075 76.7735543,10.6414453 C76.7657067,10.6228905 76.7596701,10.6037372 76.7526274,10.584983 C75.7584018,8.2760146 74.5215055,6.06919708 72.961853,4.16803406 C71.5350055,2.4286764 69.7765482,0.817206813 67.6605238,0.207892944 C66.678975,-0.0748175182 65.631225,-0.0808029197 64.6341823,0.261961071 C64.3635421,0.35513382 64.1110116,0.495391727 63.8379567,0.578788321 C63.5035299,0.680739659 63.1616579,0.759547445 62.8242128,0.849727494 C58.5776762,1.98515815 54.3307372,3.12058881 50.0839994,4.25601946 C43.4441579,6.03109002 36.8045177,7.80616058 30.1648774,9.58123114 C24.0389506,11.218837 17.913225,12.8566423 11.7872982,14.4942482 C11.2460177,14.6390949 10.7047372,14.7837421 10.1632555,14.9285888 C10.1968591,14.9335766 10.2304628,14.938764 10.2638652,14.9437518 C11.0274933,15.0568759 11.7885055,15.1885547 12.5467006,15.333601" id="Fill-6"></path>
                <path d="M23.486925,28.4894934 C24.0984311,28.326092 24.7433396,28.4607635 25.3759738,28.8388414 C25.0023091,28.3284861 24.5916201,27.8512501 24.1356567,27.4224959 C24.0881689,27.3780044 24.0388701,27.3339119 23.9889677,27.290019 C23.9219616,27.2329582 23.8543518,27.1764959 23.7855348,27.1218292 C23.7760774,27.1142477 23.7688335,27.1060676 23.7597787,27.0984861 C23.3989921,26.8119849 23.0005774,26.5637903 22.625303,26.4217367 C22.072553,26.2124472 21.5962665,26.1683547 21.1159555,26.284272 C20.850547,26.3690652 20.6022421,26.4740092 20.3736567,26.6324229 C19.8792604,26.9909484 19.4854738,27.5493864 19.1687543,28.1908219 C19.1295165,28.2702282 19.0922909,28.3508316 19.0558701,28.4318341 C18.8560591,28.8978973 18.7029311,29.3898973 18.5854189,29.8617465 C18.4125713,30.555255 18.305925,31.263328 18.2479738,31.9771869 C18.2272482,32.2471285 18.2125591,32.5160725 18.2035043,32.7822234 C18.1994799,32.8991382 18.1966628,33.0162526 18.1946506,33.1337659 C18.1942482,33.178856 18.1936445,33.223946 18.1932421,33.2692355 C18.1930409,33.3049484 18.1928396,33.3408608 18.1926384,33.3767732 C18.1924372,33.9034886 18.2127604,34.4304034 18.2477726,34.953727 C18.2493823,34.9764715 18.2475713,34.9970214 18.2475713,35.0189679 C18.4884311,38.3458535 19.5041872,41.6873036 21.209925,44.420238 C21.9574555,45.6181163 22.9303518,46.7866662 24.1529616,47.4195226 C24.5946384,47.6483645 25.0371201,47.7543061 25.5240713,47.7523109 C26.069175,47.7503158 26.7702238,47.3650555 27.2449006,46.8157951 C27.310297,46.7401796 27.3728762,46.6619703 27.4332421,46.5815664 C27.8513762,46.0063693 28.1799677,45.2065202 28.3902421,44.4643304 C28.5027238,44.0674983 28.5952848,43.6628852 28.6705409,43.2530847 C28.2713213,43.9148706 27.755797,44.3653718 27.1392604,44.5301698 C24.9844006,45.1063645 22.4204616,41.9825835 21.4117482,37.5529873 C20.4030348,33.1231917 21.3320652,29.0656881 23.486925,28.4894934" id="Fill-8"></path>
                <path d="M17.3806774,27.5792136 C17.3989884,27.5365178 17.4195128,27.4930238 17.4392323,27.4501285 C17.4519091,27.4221966 17.464586,27.3932672 17.4782689,27.3651358 C17.7376409,26.8124837 18.0513421,26.2905567 18.4368787,25.81771 C18.8081287,25.3608243 19.2455799,24.9975105 19.7238787,24.7329557 C19.9800311,24.5825226 20.2552994,24.4602209 20.5480738,24.3662501 C20.5818787,24.3522842 20.6166896,24.34171 20.6539152,24.3317343 L20.6879213,24.3225567 C21.5785189,24.0699727 22.4745494,23.8351455 23.3693726,23.6009168 L23.3713848,23.6051066 L28.1326409,22.3322112 C28.1497445,22.3278219 28.1674518,22.3218365 28.1843543,22.3172477 C27.7084701,22.121126 24.933653,21.0287903 24.933653,21.0287903 C24.1931652,20.749671 23.4498604,20.4771358 22.7031348,20.2143766 C22.6029274,20.1800603 22.5023177,20.1435494 22.4021104,20.1094326 C22.3286652,20.0838949 22.254214,20.0585567 22.1807689,20.033019 C19.3681226,19.0655786 16.5146287,18.2358024 13.6251165,17.5989557 C13.3273116,17.5331163 13.027897,17.469272 12.7274762,17.4056273 C12.2731226,17.3148487 11.8193726,17.2262647 11.3640128,17.1454618 C8.99847622,16.7254861 6.556275,16.4365908 4.15793963,16.626727 C3.11884207,16.709126 1.96645793,16.8503815 1.03984207,17.3972477 C0.758134756,17.5632428 0.488098171,17.7651504 0.288890854,18.0370871 C0.0524579268,18.3593012 -0.0177676829,18.7194229 0.00356158537,19.1220409 C0.00175060976,19.0200895 0.0238847561,19.2948195 0.038775,19.3750238 C0.0576896341,19.4785713 0.0824396341,19.5819192 0.110006707,19.6830725 C0.132342073,19.7660701 0.158098171,19.8496662 0.184659146,19.9314667 C0.177415244,19.9005421 0.266354268,20.1475397 0.287281098,20.1946248 C0.800994512,21.3923036 1.50848232,22.2685664 2.36286037,23.2164545 C3.50920793,24.4879533 4.78574451,25.617199 6.10695183,26.667238 C9.30754939,29.2090384 12.7735555,31.3540068 16.3222628,33.2779144 C16.3299091,32.802474 16.3540555,32.3298268 16.3947018,31.8601723 C16.3979213,31.8250579 16.4001348,31.7903426 16.403153,31.7540311 C16.4047628,31.7414618 16.4063726,31.7288925 16.406775,31.7153255 C16.472775,30.9519873 16.5884762,30.1938365 16.7627323,29.4504496 C16.9122384,28.8161966 17.1154701,28.1797489 17.3806774,27.5792136" id="Fill-10"></path>
                <path d="M83.1246457,47.817073 L83.1246457,81.9961095 C77.313225,81.9530146 72.5616274,77.0727178 72.1312189,70.8850097 C72.1098896,70.5829465 72.099225,70.2760949 72.099225,69.9674477 L72.099225,59.8455353 C72.099225,59.3677007 72.1251823,58.8980462 72.1756884,58.4351752 C72.8171762,52.4830925 77.468164,47.8585718 83.1246457,47.817073" id="Fill-13"></path>
                <path d="M72.3004445,69.9977338 C72.3004445,70.2962058 72.3111091,70.5928822 72.3324384,70.8849698 L60.1952799,70.8849698 C55.1464811,70.8849698 51.051664,66.5972277 51.051664,61.3031401 L51.051664,51.8729406 C51.051664,50.2491012 50.0226274,48.8034273 48.4832982,48.2485805 C47.6092006,47.9335489 47.0411579,47.4565124 46.8926579,46.8298409 C46.4302555,44.8670282 50.2709323,42.1839723 55.4742677,40.8342642 C60.6759933,39.4847557 65.2686274,39.9823421 65.7324384,41.9449552 C65.9380848,42.8150331 65.2967982,43.826965 64.065536,44.8017873 C63.1570299,45.5210331 62.6467372,46.6261377 62.6467372,47.7791255 L62.6467372,58.8447363 L72.3769079,58.8447363 C72.3264018,59.2924443 72.3004445,59.7465367 72.3004445,60.2088092 L72.3004445,69.9977338 Z" id="Fill-16"></path>
                <path d="M37.175647,33.3384068 C36.5476409,30.6326063 35.497275,27.8898959 33.7259396,25.8185479 C33.1546774,25.1503776 32.5023238,24.5352779 31.7302445,24.1548058 C31.1457018,23.8667085 30.5152811,23.7837109 29.963336,23.9179835 C29.1938726,24.1049275 28.430647,24.3275844 27.6652079,24.5322852 C26.9148604,24.7329956 26.164714,24.9335066 25.4145677,25.1340175 L24.6213604,25.3864019 C27.7827201,27.5144117 29.3121896,31.6904263 30.1172689,35.2254044 C30.7259579,37.8994822 30.997403,40.8834044 30.4929457,43.6524506 C30.3545067,44.4822268 30.1496652,45.3020273 29.8597079,46.0601781 L29.5152201,46.7700467 L30.3927384,46.5005041 C31.2875616,46.2612876 32.182586,46.022071 33.0774091,45.7828545 C33.5474579,45.6571611 34.0175067,45.5314676 34.4877567,45.4057742 C34.7968299,45.3231757 35.0706896,45.2567377 35.259836,45.149599 C35.8570555,44.8116234 36.2812262,44.3174287 36.6480494,43.6372876 C37.1003909,42.7983338 37.3567445,41.8506453 37.5275799,40.9015601 C37.975897,38.4124311 37.7213543,35.7818472 37.175647,33.3384068" id="Fill-18"></path>
            </g>
        </g>
    </g>
</svg>