<?xml version="1.0" encoding="UTF-8"?>
<svg width="89px" height="82px" viewBox="0 0 89 82" version="1.1" xmlns="http://www.w3.org/2000/svg" xmlns:xlink="http://www.w3.org/1999/xlink">
    <!-- Generator: Sketch 52.4 (67378) - http://www.bohemiancoding.com/sketch -->
    <title>Fill 1</title>
    <desc>Created with Sketch.</desc>
    <g id="Homepage-Updates" stroke="none" stroke-width="1" fill="none" fill-rule="evenodd">
        <g id="Home-Page" transform="translate(-773.000000, -6661.000000)" fill="#059B9A">
            <path d="M791.788679,6720.03339 L791.783648,6719.71758 C790.12369,6718.0529 789.497694,6715.78373 788.832285,6713.19069 C788.055765,6712.86089 787.784906,6711.68879 787.649476,6710.23945 C787.490147,6708.53153 787.918239,6707.06863 788.852411,6706.87576 C789.636478,6701.69647 791.218029,6698.50106 795.756813,6698.0975 C796.322851,6698.04748 797.102725,6698 797.964361,6698 C800.474633,6698 803.677568,6698.3989 804.328302,6700.27341 C805.989937,6701.24246 806.479245,6703.94571 807.047379,6706.88381 C807.951782,6707.11738 808.359329,6708.55655 808.210482,6710.23098 C808.08847,6711.59765 807.88805,6712.71761 807.171908,6713.12159 C806.519078,6715.74812 805.889727,6718.04569 804.215514,6719.72521 L804.210901,6720.03339 C804.444025,6725.2627 815,6720.74343 815,6730.39833 C815,6735.20119 781,6735.19992 781,6730.39833 C781,6720.67603 791.554298,6725.3017 791.788679,6720.03339 Z M799,6683 C800.6568,6683 802,6684.3432 802,6686 C802,6687.6568 800.6568,6689 799,6689 C797.3432,6689 796,6687.6568 796,6686 C796,6684.3432 797.3432,6683 799,6683 Z M823,6733 L854,6733 L854,6729 L823,6729 L823,6733 Z M823,6722 L854,6722 L854,6718 L823,6718 L823,6722 Z M823,6712 L854,6712 L854,6708 L823,6708 L823,6712 Z M823,6702 L854,6702 L854,6698 L823,6698 L823,6702 Z M836,6683 C837.6568,6683 839,6684.3432 839,6686 C839,6687.6568 837.6568,6689 836,6689 C834.3432,6689 833,6687.6568 833,6686 C833,6684.3432 834.3432,6683 836,6683 Z M777.977315,6743 L857.023103,6743 C859.771657,6743 862,6740.77452 862,6738.02909 L862,6681.61977 C862,6678.87433 859.771657,6676.64885 857.023103,6676.64885 L823.276225,6676.64885 L823.276225,6661 L811.723775,6661 L811.723775,6686.45547 L823.276225,6686.45547 L823.276225,6683.3257 L824.738667,6683.3257 C826.469362,6683.3257 827.872469,6684.727 827.872469,6686.45547 C827.872469,6688.18394 826.469362,6689.58524 824.738667,6689.58524 L810.261333,6689.58524 C808.530638,6689.58524 807.127531,6688.18394 807.127531,6686.45547 L807.127531,6676.64885 L777.977315,6676.64885 C775.228343,6676.64885 773,6678.87433 773,6681.61977 L773,6738.02909 C773,6740.77452 775.228343,6743 777.977315,6743 Z" id="Fill-1"></path>
        </g>
    </g>
</svg>