<?xml version="1.0" encoding="UTF-8"?>
<svg width="120px" height="89px" viewBox="0 0 120 89" version="1.1" xmlns="http://www.w3.org/2000/svg" xmlns:xlink="http://www.w3.org/1999/xlink">
    <!-- Generator: Sketch 52.4 (67378) - http://www.bohemiancoding.com/sketch -->
    <title>Artboard</title>
    <desc>Created with Sketch.</desc>
    <defs>
        <polygon id="path-1" points="37 0 37 33 0 33 0 0 37 0"></polygon>
    </defs>
    <g id="Artboard" stroke="none" stroke-width="1" fill="none" fill-rule="evenodd">
        <rect id="Rectangle-9" fill="#FFFFFF" x="20" y="15" width="80" height="51"></rect>
        <path d="M20.1881722,7.31982212 C20.1881722,6.64535491 20.7415738,6.09985177 21.4258067,6.09985177 L98.5741933,6.09985177 C99.2569224,6.09985177 99.8118278,6.64535491 99.8118278,7.31982212 L99.8118278,53.4518967 C99.8118278,54.2508809 99.1531596,54.9001482 98.341103,54.9001482 L21.6573932,54.9001482 C20.8453366,54.9001482 20.1881722,54.2508809 20.1881722,53.4518967 L20.1881722,7.31982212 Z M15.469221,61 L104.530779,61 C105.341332,61 106,60.352215 106,59.5517484 L106,6.70909577 C106,3.003232 102.95178,0 99.1922587,0 L20.8062375,0 C17.0467161,0 14,3.003232 14,6.70909577 L14,59.5517484 C14,60.352215 14.6571643,61 15.469221,61 Z" id="Fill-4" fill="#059B9A"></path>
        <path d="M104.4705,76.3422332 L15.5295,76.3422332 C14.7465,76.3422332 14.2515,75.5154106 14.631,74.8406644 L18.225,68.4578899 C18.4065,68.1374962 18.75,67.9366964 19.1235,67.9366964 L100.8765,67.9366964 C101.25,67.9366964 101.5935,68.1374962 101.775,68.4578899 L105.369,74.8406644 C105.7485,75.5154106 105.2535,76.3422332 104.4705,76.3422332 Z M73.245,83.0262073 L46.755,83.0262073 C46.458,83.0262073 46.2285,82.7663488 46.2705,82.4769609 L46.7505,79.0869886 C46.785,78.8492771 46.992,78.6706244 47.2365,78.6706244 L72.7635,78.6706244 C73.008,78.6706244 73.215,78.8492771 73.2495,79.0869886 L73.7295,82.4769609 C73.7715,82.7663488 73.542,83.0262073 73.245,83.0262073 Z M119.55,83.8973239 L107.8275,66.1354045 C107.3325,65.425223 106.5135,65 105.639,65 L14.361,65 C13.485,65 12.6675,65.425223 12.1725,66.1354045 L0.4515,83.8973239 C0.1575,84.319594 0,84.8186404 0,85.3294986 L0,86.4634266 C0,87.8645955 1.1535,89 2.577,89 L117.423,89 C118.8465,89 120,87.8645955 120,86.4634266 L120,85.3294986 C120,84.8186404 119.8425,84.319594 119.55,83.8973239 Z" id="Fill-5" fill="#059B9A"></path>
        <g id="Page-1-Copy-5" transform="translate(46.000000, 14.000000)">
            <mask id="mask-2" fill="white">
                <use xlink:href="#path-1"></use>
            </mask>
            <g id="Clip-2"></g>
            <path d="M31.1039236,0.205824846 C30.36872,-1.41174392 15.0615526,6.62585284 8.16300211,20.0579223 C7.1408832,17.7935837 6.65375615,16.5496469 5.8315754,14.9823252 C4.48288171,12.3839725 0,13.7757516 0,17.7426924 C5.18936636,34.3345288 10.2058724,36.0532358 12.0537277,29.2885646 C18.7397584,8.61737568 31.845965,1.82339361 31.1039236,0.205824846" id="Fill-1" fill="#84BF41" mask="url(#mask-2)"></path>
        </g>
    </g>
</svg>