<?xml version="1.0" encoding="UTF-8"?>
<svg width="120px" height="89px" viewBox="0 0 120 89" version="1.1" xmlns="http://www.w3.org/2000/svg" xmlns:xlink="http://www.w3.org/1999/xlink">
    <!-- Generator: Sketch 52.4 (67378) - http://www.bohemiancoding.com/sketch -->
    <title>Artboard</title>
    <desc>Created with Sketch.</desc>
    <g id="Artboard" stroke="none" stroke-width="1" fill="none" fill-rule="evenodd">
        <rect id="Rectangle-9" fill="#FFFFFF" x="20" y="15" width="80" height="51"></rect>
        <g id="Group-2" transform="translate(24.000000, 1.000000)" fill="#059B9A">
            <path d="M34.1833915,11.3313602 L21.3417259,22.2109576 C20.3483026,23.052018 20.0728722,24.4151984 20.5726565,25.5416685 L24.4910419,36.011713 L22.3928747,38.2616594 C22.0815799,38.5955687 22.2223174,39.2309545 22.7053784,39.672641 L23.5457736,40.4417502 L0.0979218556,65.5874405 L0,71.6666667 L9.36080553,71.4188792 L11.0120783,69.6485408 L9.07499863,67.8763064 C8.85709228,67.67632 8.84288757,67.3365228 9.04447361,67.1206693 L10.5701203,65.4843537 C10.7713034,65.2687996 11.1145336,65.2549283 11.3322384,65.4548148 L13.2697211,67.2269495 L14.9476907,65.4275712 L13.010208,63.6550374 C12.7921002,63.456049 12.7782984,63.116152 12.9802875,62.8996997 L14.5055312,61.2640827 C14.7069157,61.0482291 15.0498437,61.0348568 15.2680523,61.234444 L17.2054342,63.0067782 L20.6833727,59.2766933 L18.7460915,57.5041595 C18.5282859,57.3048716 18.5142827,56.9648749 18.715768,56.7491211 L20.2411124,55.1131049 C20.4423963,54.8971516 20.7857272,54.8838791 21.0036336,55.0832667 L22.9407132,56.8556009 L31.4783506,47.6999378 L32.318645,48.4691469 C32.8018068,48.9108333 33.4516976,48.9995498 33.7636976,48.6655407 L34.5983504,47.7703921 L34.590291,47.7562214 C34.0031629,46.7391251 33.4892746,45.6425931 33.0529582,44.4799978 C30.8730887,38.6709129 31.1584927,31.9968171 34.4072416,26.1558981 L34.4203382,26.1299518 L34.4209426,26.128854 L34.4221515,26.1294528 C36.74296,21.9700558 40.2254319,18.8445205 44.25,16.9306789 L38.1207164,11.3224786 C36.9996522,10.2966004 35.2793708,10.3159604 34.1833915,11.3313602" id="Fill-2"></path>
            <path d="M69.7529585,27.216986 C72.6694172,32.6286144 72.859104,39.355975 69.6603231,45.1327128 C65.837483,52.0375349 58.2756061,55.5957538 50.8643746,54.6909695 L49.1195577,57.8418358 C48.9191321,58.2039492 48.3286945,58.2663653 47.8072065,57.9802498 L46.9006243,57.4833175 L42.7136659,65.044957 L39.417633,65.2762462 L38.1259567,67.6090117 L39.9662191,70.0067899 L38.8904243,71.9496792 L35.5943914,72.1812681 L34.3027151,74.5137339 L36.1431782,76.9114122 L35.4034,78.2471174 L31.8708106,78.9058323 L33.5283114,81.6340664 L31.8094886,84.7379957 L25.5316605,86 L23.25,80.0454011 L38.3412361,52.7908227 L37.4344532,52.293491 C36.9130655,52.0078748 36.6504146,51.4779868 36.8508402,51.1157735 L38.5955568,47.9647075 C33.8673388,42.2140346 32.8504573,33.9531347 36.6735986,27.0486122 C41.6257272,18.1046301 52.850465,14.7740055 61.8973181,19.4886704 C60.8963944,22.2134092 60.1438699,23.0135341 57.7685704,24.7144486 L57.7685704,24.7146483 C54.8101599,23.8621938 51.5471465,25.1240982 49.9987407,27.9203409 C48.2039428,31.1619851 49.3907395,35.2410042 52.648835,37.0271042 C55.905927,38.8126051 60.0050674,37.6314921 61.7999656,34.3902474 C61.8622913,34.2775987 61.9207028,34.1637517 61.9759026,34.0491057 L61.9761033,34.0496051 C65.5066854,33.1286426 67.9638814,30.5878566 69.7529585,27.216986" id="Fill-3"></path>
            <path d="M50.7803446,0 C60.012823,0 67.5,7.60356956 67.5,16.9792509 C67.5,26.1594006 60.3216523,33.6392096 51.3556186,33.9473684 C50.3525842,32.6036967 50.1967502,31.17215 50.5283868,29.4876149 C50.612177,29.4893048 50.6961629,29.4902989 50.7803446,29.4902989 C57.5831049,29.4902989 63.1003328,23.8875745 63.1003328,16.9792509 C63.1003328,10.0709274 57.5831049,4.4681036 50.7803446,4.4681036 C46.1904855,4.4681036 42.1863743,7.01906192 40.066758,10.8005679 L36.75,7.74412973 C39.7311081,3.08347659 44.9014291,0 50.7803446,0" id="Fill-4"></path>
        </g>
    </g>
</svg>