<?xml version="1.0" encoding="UTF-8"?>
<svg width="120px" height="89px" viewBox="0 0 120 89" version="1.1" xmlns="http://www.w3.org/2000/svg" xmlns:xlink="http://www.w3.org/1999/xlink">
    <!-- Generator: Sketch 52.4 (67378) - http://www.bohemiancoding.com/sketch -->
    <title>Artboard</title>
    <desc>Created with Sketch.</desc>
    <g id="Artboard" stroke="none" stroke-width="1" fill="none" fill-rule="evenodd">
        <rect id="Rectangle-9" fill="#FFFFFF" x="20" y="15" width="80" height="51"></rect>
        <g id="Group-4" transform="translate(45.000000, 1.000000)" fill="#059B9A">
            <path d="M60.3199397,34.5789112 C60.2924096,34.3239998 60.1813298,34.0765297 59.9852615,33.8814347 L35.8646395,9.8923821 C35.4071788,9.43741484 34.6635773,9.43903666 34.2040062,9.89619814 L9.97700472,33.9912412 C9.85930619,34.108012 9.77220735,34.2434814 9.71455713,34.3879185 C9.63139117,34.5580184 9.58333333,34.7484388 9.58333333,34.9504026 L9.58333333,62.7120868 C9.58333333,63.4233011 10.1630969,64 10.878305,64 L26.3459263,64 L26.3459263,42.7138479 C26.3459263,42.0026336 26.9256899,41.4259347 27.6408979,41.4259347 L42.3174354,41.4259347 C43.0327394,41.4259347 43.6124071,42.0026336 43.6124071,42.7138479 L43.6124071,64 L59.0800283,64 C59.7952364,64 60.375,63.4233011 60.375,62.7120868 L60.375,34.9504026 C60.375,34.8211343 60.3553356,34.696636 60.3199397,34.5789112" id="Fill-4"></path>
            <path d="M68.2575597,32.7750407 L58.7683232,23.3407942 L58.7683232,13.9252979 C59.3793863,13.8230755 59.8452226,13.2961641 59.8452226,12.6597015 L59.8452226,10.518172 C59.8452226,9.80842152 59.2666129,9.23325428 58.5528284,9.23325428 L44.5785055,9.23325428 L36.0318551,0.735950679 C35.9715434,0.675987852 35.9089341,0.620688801 35.8450802,0.567769227 L35.6825258,0.406155133 C35.3772335,0.102724194 34.951988,-0.0259579353 34.4999372,0.00430901525 C34.0478865,-0.0259579353 33.6225452,0.102724194 33.3173487,0.406155133 L33.1547943,0.567769227 C33.0910361,0.620688801 33.0284268,0.675987852 32.9681151,0.735950679 L0.742410519,32.7752311 C-0.0987944743,33.6114746 -0.247276202,34.8197731 0.41069602,35.473939 L1.79020711,36.8454697 C2.4480836,37.4996356 3.6635085,37.3518224 4.5047135,36.5156741 L34.4999372,6.69397134 L64.4950653,36.5156741 C65.3364617,37.3518224 66.5517909,37.4996356 67.2097631,36.8454697 L68.5893699,35.4741293 C69.2473421,34.8199635 69.098669,33.6114746 68.2575597,32.7750407" id="Fill-5"></path>
        </g>
        <g id="Group" transform="translate(6.000000, 45.000000)" fill="#059B9A" stroke="#FFFFFF" stroke-width="1.6">
            <path d="M8.61714473,10.6596277 C17.4753753,4.52058694 28.2428494,-0.0783564815 35.2399858,-0.0783564815 L47.8953531,-0.0783564815 C55.4673685,-0.0783564815 66.7922654,4.47221609 73.5301535,10.668655 C89.5263959,11.1645522 105.658969,17.0311114 105.658969,22.1976119 L105.658969,35.5252602 L93.857839,35.5252602 C93.8194014,35.5252602 64.9273546,35.5636932 51.9608115,35.5807391 C51.2688524,35.5816486 51.2688524,35.5816486 50.5766835,35.5825578 C24.7558895,35.6164703 9.04605196,35.6362194 7.42710449,35.6362194 C3.31336185,35.6362194 0.448965798,33.3901836 -0.551277315,29.4375258 C-1.42039983,25.9943931 0.247893215,16.6081037 2.36049297,11.1699379 L2.55873647,10.6596277 L8.61714473,10.6596277 Z" id="Fill-7"></path>
            <ellipse id="Oval-2" cx="20.7110092" cy="33.6310764" rx="9.95137615" ry="9.86201775"></ellipse>
            <ellipse id="Oval-2" cx="85.2522936" cy="33.6310764" rx="9.95137615" ry="9.86201775"></ellipse>
        </g>
    </g>
</svg>