<?xml version="1.0" encoding="UTF-8"?>
<svg width="71px" height="82px" viewBox="0 0 71 82" version="1.1" xmlns="http://www.w3.org/2000/svg" xmlns:xlink="http://www.w3.org/1999/xlink">
    <!-- Generator: Sketch 52.4 (67378) - http://www.bohemiancoding.com/sketch -->
    <title>Group 13</title>
    <desc>Created with Sketch.</desc>
    <g id="Homepage-Updates" stroke="none" stroke-width="1" fill="none" fill-rule="evenodd">
        <g id="Home-Page" transform="translate(-1332.000000, -6657.000000)" fill="#059B9A">
            <g id="Group-13" transform="translate(1332.000000, 6657.000000)">
                <path d="M64.5222448,20.7215246 L64.5215482,21.5684619 L64.5208516,22.4697896 L64.516672,30.3921496 C64.5131889,37.4812476 64.5090093,44.3272979 64.5090093,45.2230312 L64.5090093,45.2653004 L64.5090093,45.2882998 C64.5971302,52.2919271 61.042341,65.522175 36.2483308,75.4386449 L35.5008708,75.7376371 L34.753759,75.4386449 C9.95974883,65.5224858 6.40426304,52.2919271 6.49168731,45.2882998 L6.49168731,45.2653004 L6.49168731,45.2230312 C6.49168731,44.3272979 6.48750767,37.4812476 6.48367632,30.3921496 L6.47984498,22.4701004 L6.47949668,21.5678403 L6.47914837,20.7215246 L6.47914837,19.2635493 L8.10294096,19.1009995 C18.3646692,18.0756615 27.6797076,14.7917205 34.3326596,9.85493096 L35.5008708,8.98810232 L36.6690819,9.85493096 C43.3223822,14.7923421 52.6370723,18.0759723 62.898104,19.1009995 L64.5222448,19.2635493 L64.5222448,20.7215246 Z M71,13.6582232 C70.6760774,13.663196 70.1637224,13.6675473 69.8380583,13.6675473 C54.1978219,13.6675473 40.8448969,7.99695262 35.5001742,0 C30.1561481,7.99695262 16.803223,13.6675473 1.16298658,13.6675473 C0.836625868,13.6675473 0.3249675,13.663196 0,13.6582232 C0,14.2282353 0.0170668891,43.3103516 0.0170668891,45.2224096 C-0.0898623954,53.7331191 4.08455935,70.6184063 35.4925115,82 C35.4946013,81.9993784 35.497736,81.998446 35.5001742,81.996892 C35.5029606,81.998446 35.5064436,81.9993784 35.5085334,82 C66.9161373,70.6184063 71.0909073,53.7331191 70.983978,45.2224096 C70.983978,43.3103516 71,14.2282353 71,13.6582232 Z" id="Fill-1"></path>
                <path d="M37.8205049,55.9682403 L32.4838512,55.9682403 L33.9757675,49.9753415 C32.6924501,49.5477498 31.7776572,48.4412248 31.7776572,47.1436648 C31.7776572,45.4749286 33.2886951,44.1225092 35.1521781,44.1225092 C37.0152265,44.1225092 38.5262643,45.4749286 38.5262643,47.1436648 C38.5262643,48.4412248 37.6119061,49.5477498 36.328154,49.9753415 L37.8205049,55.9682403 Z M51.5067619,37.5261574 L18.7975943,37.5261574 C18.7971597,48.2999911 18.7941176,57.8108923 18.7941176,57.8354039 C18.7941176,60.4433635 28.0320043,64.5718221 35.1521781,64.6060606 C42.2719173,64.5718221 51.5098039,60.4433635 51.5098039,57.8354039 C51.5098039,57.8108923 51.507631,48.2999911 51.5067619,37.5261574 Z M23.0808238,36.0858074 L23.0808238,28.2016225 C23.0808238,22.2328462 28.4852722,17.3939394 35.1521781,17.3939394 C41.819084,17.3939394 47.2235323,22.2328462 47.2235323,28.2016225 L47.2235323,36.0858074 L42.122856,36.0858074 L42.122856,28.2016225 C42.122856,24.7606566 38.9956117,21.9608839 35.1521781,21.9608839 C31.3083098,21.9608839 28.1810655,24.7606566 28.1810655,28.2016225 L28.1810655,36.0858074 L23.0808238,36.0858074 Z" id="Fill-4"></path>
            </g>
        </g>
    </g>
</svg>